<svg width="258" height="96" viewBox="0 0 258 96" fill="none" xmlns="http://www.w3.org/2000/svg">
<g filter="url(#filter0_d)">
<rect x="9" y="6" width="240" height="78" rx="15" fill="#F35903"/>
<path d="M104.066 56H106.855L100.75 39.0898H97.9258L91.8203 56H94.5156L96.0742 51.5117H102.52L104.066 56ZM99.2031 42.1602H99.4023L101.852 49.3086H96.7422L99.2031 42.1602ZM116.137 43.0273C114.402 43.0273 112.902 43.8945 112.129 45.3477H111.941V43.2383H109.516V60.2422H112.035V54.0664H112.234C112.902 55.4141 114.344 56.2109 116.16 56.2109C119.383 56.2109 121.434 53.668 121.434 49.6133C121.434 45.5586 119.383 43.0273 116.137 43.0273ZM115.422 53.9492C113.312 53.9492 111.988 52.2852 111.988 49.625C111.988 46.9531 113.312 45.2891 115.434 45.2891C117.566 45.2891 118.844 46.918 118.844 49.6133C118.844 52.3203 117.566 53.9492 115.422 53.9492ZM131.09 43.0273C129.355 43.0273 127.855 43.8945 127.082 45.3477H126.895V43.2383H124.469V60.2422H126.988V54.0664H127.188C127.855 55.4141 129.297 56.2109 131.113 56.2109C134.336 56.2109 136.387 53.668 136.387 49.6133C136.387 45.5586 134.336 43.0273 131.09 43.0273ZM130.375 53.9492C128.266 53.9492 126.941 52.2852 126.941 49.625C126.941 46.9531 128.266 45.2891 130.387 45.2891C132.52 45.2891 133.797 46.918 133.797 49.6133C133.797 52.3203 132.52 53.9492 130.375 53.9492ZM145.48 51.4531C145.668 54.4766 148.188 56.4102 151.938 56.4102C155.945 56.4102 158.453 54.3828 158.453 51.1484C158.453 48.6055 157.023 47.1992 153.555 46.3906L151.691 45.9336C149.488 45.418 148.598 44.7266 148.598 43.5195C148.598 41.9961 149.98 41 152.055 41C154.023 41 155.383 41.9727 155.629 43.5312H158.184C158.031 40.6836 155.523 38.6797 152.09 38.6797C148.398 38.6797 145.938 40.6836 145.938 43.6953C145.938 46.1797 147.332 47.6562 150.391 48.3711L152.57 48.8984C154.809 49.4258 155.793 50.1992 155.793 51.4883C155.793 52.9883 154.246 54.0781 152.137 54.0781C149.875 54.0781 148.305 53.0586 148.082 51.4531H145.48ZM162.508 40.0625V43.2969H160.48V45.418H162.508V52.625C162.508 55.0859 163.621 56.0703 166.422 56.0703C166.914 56.0703 167.383 56.0117 167.793 55.9414V53.8438C167.441 53.8789 167.219 53.9023 166.832 53.9023C165.578 53.9023 165.027 53.3164 165.027 51.9805V45.418H167.793V43.2969H165.027V40.0625H162.508ZM176.008 56.2461C179.734 56.2461 182.02 53.75 182.02 49.6133C182.02 45.5 179.723 42.9922 176.008 42.9922C172.281 42.9922 169.984 45.5 169.984 49.6133C169.984 53.75 172.27 56.2461 176.008 56.2461ZM176.008 54.0078C173.816 54.0078 172.586 52.4023 172.586 49.6133C172.586 46.8477 173.816 45.2305 176.008 45.2305C178.188 45.2305 179.43 46.8477 179.43 49.6133C179.43 52.3906 178.188 54.0078 176.008 54.0078ZM185.055 56H187.574V48.4648C187.574 46.6719 188.922 45.4648 190.832 45.4648C191.277 45.4648 192.027 45.5469 192.238 45.6172V43.1328C191.969 43.0625 191.488 43.0273 191.113 43.0273C189.449 43.0273 188.031 43.9414 187.668 45.1953H187.48V43.2383H185.055V56ZM199.574 45.1367C201.438 45.1367 202.656 46.4375 202.715 48.4414H196.27C196.41 46.4492 197.711 45.1367 199.574 45.1367ZM202.703 52.5547C202.234 53.5508 201.191 54.1016 199.668 54.1016C197.652 54.1016 196.352 52.6836 196.27 50.4453V50.3047H205.281V49.4258C205.281 45.418 203.137 42.9922 199.586 42.9922C195.988 42.9922 193.703 45.582 193.703 49.6602C193.703 53.7383 195.941 56.2461 199.598 56.2461C202.516 56.2461 204.555 54.8398 205.129 52.5547H202.703Z" fill="white"/>
<path fill-rule="evenodd" clip-rule="evenodd" d="M64.6587 28.0253C66.1611 26.1663 67.1699 23.5758 66.8944 21C64.7338 21.0898 62.1188 22.4758 60.5717 24.3348C59.1819 25.9812 57.9657 28.6157 58.2948 31.1402C60.7023 31.3327 63.1634 29.8862 64.6623 28.0253H64.6587ZM70.0639 44.375C70.1247 51.0337 75.7624 53.2502 75.8232 53.2795C75.7785 53.4353 74.9253 56.4365 72.8541 59.5367C71.0655 62.217 69.2089 64.8882 66.2827 64.9432C63.4084 64.9963 62.4855 63.196 59.198 63.196C55.9141 63.196 54.8875 64.8882 52.1652 64.9963C49.3427 65.1063 47.1928 62.0978 45.3863 59.4285C41.7018 53.9652 38.8847 43.9918 42.6676 37.2598C44.5439 33.9158 47.9029 31.7983 51.5481 31.7452C54.3205 31.6902 56.9372 33.6573 58.631 33.6573C60.3266 33.6573 63.5068 31.2923 66.8497 31.6388C68.2502 31.6993 72.178 32.2182 74.7018 36.004C74.4979 36.1323 70.0138 38.809 70.0621 44.375" fill="#F7F7F7"/>
</g>
<defs>
<filter id="filter0_d" x="0" y="0" width="258" height="96" filterUnits="userSpaceOnUse" color-interpolation-filters="sRGB">
<feFlood flood-opacity="0" result="BackgroundImageFix"/>
<feColorMatrix in="SourceAlpha" type="matrix" values="0 0 0 0 0 0 0 0 0 0 0 0 0 0 0 0 0 0 127 0"/>
<feOffset dy="3"/>
<feGaussianBlur stdDeviation="4.5"/>
<feColorMatrix type="matrix" values="0 0 0 0 0 0 0 0 0 0 0 0 0 0 0 0 0 0 0.25 0"/>
<feBlend mode="normal" in2="BackgroundImageFix" result="effect1_dropShadow"/>
<feBlend mode="normal" in="SourceGraphic" in2="effect1_dropShadow" result="shape"/>
</filter>
</defs>
</svg>
