<?xml version="1.0" encoding="UTF-8"?>
<!DOCTYPE svg PUBLIC "-//W3C//DTD SVG 1.0//EN" "http://www.w3.org/TR/2001/REC-SVG-20010904/DTD/svg10.dtd">
<!-- Creator: CorelDRAW X7 -->
<svg xmlns="http://www.w3.org/2000/svg" xml:space="preserve" width="7.44565in" height="2.45227in" version="1.0" shape-rendering="geometricPrecision" text-rendering="geometricPrecision" image-rendering="optimizeQuality" fill-rule="evenodd" clip-rule="evenodd"
viewBox="0 0 7265 2393"
 xmlns:xlink="http://www.w3.org/1999/xlink">
 <g id="Layer_x0020_1">
  <metadata id="CorelCorpID_0Corel-Layer"/>
  <g id="_1878006486640">
   <path fill="white" d="M1384 58l306 175c90,51 182,103 272,155 84,49 163,127 211,210 4,6 7,12 10,17 41,77 65,165 65,258 -5,42 -40,74 -84,74 -11,0 -22,-2 -32,-7 -243,-142 -489,-276 -727,-426 -58,-36 -105,-62 -170,-81l-8 -2c-25,-6 -48,-10 -73,-12 -95,-8 -189,17 -283,73l-2 2c-18,11 -36,22 -54,32 -119,65 -233,83 -332,60 -67,-15 -128,-49 -180,-100l0 0c-10,-14 -16,-31 -16,-49 0,-25 11,-47 28,-63l249 -141c90,-52 184,-109 276,-158 70,-37 154,-64 233,-72 18,-2 35,-3 54,-3 45,0 89,5 131,16 44,10 85,26 124,46l2 -4zm869 1161c0,95 4,197 -2,290 -3,56 -11,116 -28,170 -10,32 -22,61 -38,91 -67,121 -159,201 -279,268 -63,36 -126,71 -189,106 -12,6 -27,9 -42,9 -16,0 -32,-4 -46,-10l0 0 0 0c-92,-54 -162,-94 -232,-134 -230,-132 -463,-266 -677,-414 -19,-13 -35,-25 -51,-36 -149,-109 -252,-184 -423,-3 -27,29 -58,66 -90,106l0 0c-15,14 -36,23 -58,23 -38,0 -70,-25 -81,-59 -21,-101 -17,-202 -16,-315 0,-38 0,-77 0,-115 0,-90 -2,-182 0,-272 1,-90 14,-185 50,-268 6,-14 12,-27 19,-41 4,-7 8,-14 12,-21l0 0c15,-20 40,-34 68,-34 21,0 40,8 55,20 -4,-4 -9,-8 -13,-13 73,78 162,130 261,152 130,31 277,9 427,-73 20,-11 41,-23 62,-37l0 0c68,-41 135,-59 202,-54 120,16 213,93 314,152 219,128 439,254 657,382 31,18 62,36 92,54l0 0c24,18 41,45 46,76l0 0zm-995 1158c-42,10 -86,16 -131,16 -46,0 -90,-6 -132,-16 -43,-11 -85,-26 -124,-46l-585 -336 -3 -2c-31,-18 -61,-39 -88,-63 -10,-14 -16,-31 -16,-49 0,-14 3,-27 9,-38l6 -8c51,-66 108,-140 151,-185 89,-94 152,-47 244,19 18,13 36,26 53,38 219,152 454,287 687,420 28,16 56,32 84,48 9,5 13,8 20,16 13,15 19,33 19,53 0,26 -12,50 -33,66 -4,3 -11,6 -16,9 -11,6 -21,11 -32,17 -7,4 -16,8 -25,11 -28,13 -57,23 -88,30z"/>
   <path fill="white" d="M3898 752c-119,-84 -273,-134 -440,-134 -378,0 -686,259 -686,578 0,320 308,579 686,579 350,0 638,-220 681,-505 3,-11 5,-24 5,-36l0 -38 0 -943c0,-68 -55,-123 -123,-123l0 0c-68,0 -123,55 -123,123l0 499zm1549 889l0 11c0,68 56,124 124,124l0 0c68,0 123,-56 123,-124l0 -456 0 -36c0,-12 -2,-24 -5,-35 -42,-286 -331,-507 -681,-507 -379,0 -686,259 -686,578 0,320 307,579 686,579 167,0 320,-50 439,-134zm-447 -829c247,0 447,172 447,384 0,212 -200,384 -447,384 -247,0 -447,-172 -447,-384 0,-212 200,-384 447,-384zm1140 829c119,84 272,134 439,134 379,0 686,-259 686,-579 0,-319 -307,-578 -686,-578 -349,0 -638,220 -681,504 -3,12 -5,24 -5,37l0 37 0 944c0,67 55,123 123,123l0 0c68,0 124,-56 124,-123l0 -499zm447 -61c-247,0 -447,-172 -447,-384 0,-212 200,-384 447,-384 247,0 447,172 447,384 0,212 -200,384 -447,384zm-3137 -768c247,0 448,172 448,384 0,212 -201,384 -448,384 -247,0 -447,-172 -447,-384 0,-212 200,-384 447,-384z"/>
  </g>
 </g>
</svg>
