<?xml version="1.0" encoding="UTF-8"?>
<!DOCTYPE svg PUBLIC "-//W3C//DTD SVG 1.0//EN" "http://www.w3.org/TR/2001/REC-SVG-20010904/DTD/svg10.dtd">
<!-- Creator: CorelDRAW X7 -->
<svg xmlns="http://www.w3.org/2000/svg" xml:space="preserve" width="6.48344in" height="6.88164in" version="1.0" shape-rendering="geometricPrecision" text-rendering="geometricPrecision" image-rendering="optimizeQuality" fill-rule="evenodd" clip-rule="evenodd"
viewBox="0 0 6483 6882"
 xmlns:xlink="http://www.w3.org/1999/xlink">
 <g id="Layer_x0020_1">
  <metadata id="CorelCorpID_0Corel-Layer"/>
  <path fill="#F76E06" d="M3619 6836c-121,30 -248,46 -378,46 -131,0 -258,-16 -379,-46 -125,-30 -244,-75 -356,-133l-1685 -966 -6 -4c-91,-52 -177,-113 -255,-182 -29,-40 -46,-89 -46,-142 0,-39 9,-76 26,-109l18 -23c148,-191 312,-402 434,-531 256,-270 438,-137 703,55 50,37 102,75 151,109 629,437 1306,824 1977,1208 80,45 160,92 240,137 28,16 38,22 59,48 36,42 55,95 55,151 0,74 -35,145 -95,189 -13,10 -34,19 -48,27 -30,16 -60,32 -90,48 -22,12 -48,23 -71,33 -83,36 -167,64 -254,85z"/>
  <path fill="#F76E06" d="M6480 3506c1,273 10,567 -6,834 -10,162 -33,333 -80,489 -29,92 -65,175 -109,261 -192,350 -459,579 -803,772 -182,102 -362,203 -542,305 -38,16 -79,25 -122,25 -47,0 -92,-11 -132,-30l0 0 0 0c-265,-155 -466,-270 -668,-385 -663,-380 -1333,-763 -1947,-1190 -54,-37 -101,-71 -146,-104 -428,-311 -725,-527 -1217,-7 -78,82 -168,190 -260,305l0 0c-43,40 -101,65 -165,65 -109,0 -202,-72 -233,-170 -62,-291 -49,-581 -48,-906 0,-110 0,-219 0,-329 0,-260 -4,-524 0,-783 4,-258 41,-534 143,-770 18,-41 37,-79 57,-118 11,-20 23,-40 34,-60l0 0c44,-60 115,-99 196,-99 60,0 115,22 157,58 -12,-12 -24,-25 -36,-37 210,222 465,372 749,437 376,87 798,25 1229,-211 59,-32 118,-67 178,-107l0 1c196,-119 390,-171 580,-156 345,46 614,267 905,438 629,368 1262,729 1890,1098 88,51 176,103 264,155l0 0c69,51 118,129 132,219l0 0z"/>
  <path fill="#F76E06" d="M3981 168l879 501c260,149 525,296 784,447 239,140 467,365 607,604 9,17 19,33 28,50 118,221 186,473 188,742 -16,119 -118,211 -242,211 -33,0 -65,-6 -93,-18 -699,-410 -1406,-796 -2092,-1227 -165,-103 -301,-178 -489,-233l-23 -6c-70,-18 -136,-28 -208,-35 -274,-22 -545,49 -814,211l-6 5c-52,34 -104,65 -156,94 -343,187 -670,238 -955,173 -192,-45 -367,-143 -517,-290l0 0c-29,-40 -46,-88 -46,-141 0,-71 31,-135 80,-179l715 -408c261,-149 530,-312 794,-452 201,-107 443,-186 671,-210 52,-5 102,-7 155,-7 130,0 257,16 378,45 125,31 244,76 356,134l6 -11z"/>
 </g>
</svg>
