<svg width="258" height="96" viewBox="0 0 258 96" fill="none" xmlns="http://www.w3.org/2000/svg">
<g filter="url(#filter0_d)">
<rect x="9" y="6" width="240" height="78" rx="15" fill="#F35903"/>
<path d="M37.9634 26.5772V63.4209C37.9636 63.5009 37.9879 63.5789 38.033 63.6454C38.0782 63.7118 38.1423 63.7637 38.2173 63.7944C38.2923 63.8251 38.3748 63.8334 38.4546 63.8182C38.5343 63.8029 38.6077 63.7649 38.6656 63.7087L58.1615 45L38.6656 26.2894C38.6077 26.2333 38.5343 26.1952 38.4546 26.1799C38.3748 26.1647 38.2923 26.173 38.2173 26.2037C38.1423 26.2344 38.0782 26.2863 38.033 26.3527C37.9879 26.4192 37.9636 26.4972 37.9634 26.5772Z" fill="#F7F7F7"/>
<path d="M66.3359 37.3125L41.8904 24.06L41.8751 24.0516C41.454 23.8266 41.0539 24.3872 41.3988 24.7134L60.5613 42.7434L66.3359 37.3125Z" fill="#F7F7F7"/>
<path d="M41.4009 65.2866C41.0541 65.6128 41.4542 66.1734 41.8772 65.9484L41.8925 65.94L66.3361 52.6875L60.5615 47.2547L41.4009 65.2866Z" fill="#F7F7F7"/>
<path d="M76.2045 42.6563L69.3781 38.9569L62.9595 45L69.3781 51.0403L76.2045 47.3438C78.0614 46.3341 78.0614 43.6659 76.2045 42.6563Z" fill="#F7F7F7"/>
<path d="M104.547 46.3086V44.1992H97.6094V46.4023H101.969V46.7656C101.945 49.2734 100.047 50.9609 97.2812 50.9609C94.1055 50.9609 92.1133 48.5 92.1133 44.5156C92.1133 40.6016 94.0938 38.1289 97.2227 38.1289C99.5312 38.1289 101.137 39.2422 101.793 41.2812H104.43C103.855 37.8594 101.066 35.6797 97.2227 35.6797C92.4883 35.6797 89.4297 39.1484 89.4297 44.5391C89.4297 50 92.4531 53.4102 97.2461 53.4102C101.676 53.4102 104.547 50.6328 104.547 46.3086ZM113.266 53.2461C116.992 53.2461 119.277 50.75 119.277 46.6133C119.277 42.5 116.98 39.9922 113.266 39.9922C109.539 39.9922 107.242 42.5 107.242 46.6133C107.242 50.75 109.527 53.2461 113.266 53.2461ZM113.266 51.0078C111.074 51.0078 109.844 49.4023 109.844 46.6133C109.844 43.8477 111.074 42.2305 113.266 42.2305C115.445 42.2305 116.688 43.8477 116.688 46.6133C116.688 49.3906 115.445 51.0078 113.266 51.0078ZM127.703 53.2461C131.43 53.2461 133.715 50.75 133.715 46.6133C133.715 42.5 131.418 39.9922 127.703 39.9922C123.977 39.9922 121.68 42.5 121.68 46.6133C121.68 50.75 123.965 53.2461 127.703 53.2461ZM127.703 51.0078C125.512 51.0078 124.281 49.4023 124.281 46.6133C124.281 43.8477 125.512 42.2305 127.703 42.2305C129.883 42.2305 131.125 43.8477 131.125 46.6133C131.125 49.3906 129.883 51.0078 127.703 51.0078ZM142.094 50.6328C139.926 50.6328 138.707 49.0039 138.707 46.4609C138.707 43.918 139.926 42.2891 142.094 42.2891C144.238 42.2891 145.551 43.918 145.551 46.4609C145.551 49.0156 144.25 50.6328 142.094 50.6328ZM142.129 57.875C145.738 57.875 148.023 56.0234 148.023 53.1055V40.2383H145.609V42.2773H145.41C144.695 40.8945 143.16 40.0273 141.402 40.0273C138.145 40.0273 136.105 42.582 136.105 46.4727C136.105 50.293 138.121 52.8125 141.379 52.8125C143.137 52.8125 144.543 52.0508 145.316 50.668H145.504V53.1172C145.504 54.8047 144.262 55.8008 142.164 55.8008C140.465 55.8008 139.398 55.2031 139.188 54.2773H136.609C136.879 56.4453 138.941 57.875 142.129 57.875ZM151.797 53H154.316V35.2578H151.797V53ZM163.34 42.1367C165.203 42.1367 166.422 43.4375 166.48 45.4414H160.035C160.176 43.4492 161.477 42.1367 163.34 42.1367ZM166.469 49.5547C166 50.5508 164.957 51.1016 163.434 51.1016C161.418 51.1016 160.117 49.6836 160.035 47.4453V47.3047H169.047V46.4258C169.047 42.418 166.902 39.9922 163.352 39.9922C159.754 39.9922 157.469 42.582 157.469 46.6602C157.469 50.7383 159.707 53.2461 163.363 53.2461C166.281 53.2461 168.32 51.8398 168.895 49.5547H166.469ZM178.926 36.0898V53H181.551V47.3047H185.465C188.781 47.3047 191.125 45.0312 191.125 41.7266C191.125 38.375 188.852 36.0898 185.547 36.0898H178.926ZM181.551 38.4102H184.855C187.164 38.4102 188.441 39.582 188.441 41.7266C188.441 43.8242 187.117 44.9961 184.855 44.9961H181.551V38.4102ZM194.336 53H196.855V35.2578H194.336V53ZM204.812 51.0898C203.441 51.0898 202.445 50.4219 202.445 49.2734C202.445 48.1484 203.242 47.5508 205 47.4336L208.117 47.2344V48.3008C208.117 49.8828 206.711 51.0898 204.812 51.0898ZM204.168 53.2109C205.844 53.2109 207.238 52.4844 208 51.207H208.199V53H210.625V44.2812C210.625 41.5859 208.82 39.9922 205.621 39.9922C202.727 39.9922 200.664 41.3984 200.406 43.5898H202.844C203.125 42.6875 204.098 42.1719 205.504 42.1719C207.227 42.1719 208.117 42.9336 208.117 44.2812V45.3828L204.66 45.582C201.625 45.7695 199.914 47.0938 199.914 49.3906C199.914 51.7227 201.707 53.2109 204.168 53.2109ZM215.055 57.6289C217.656 57.6289 218.863 56.6328 219.953 53.5273L224.711 40.2383H222.039L218.852 50.375H218.652L215.453 40.2383H212.711L217.328 53.0469L217.141 53.668C216.707 54.957 216.027 55.4492 214.832 55.4492C214.598 55.4492 214.211 55.4375 214.012 55.4023V57.5703C214.246 57.6055 214.844 57.6289 215.055 57.6289Z" fill="white"/>
</g>
<defs>
<filter id="filter0_d" x="0" y="0" width="258" height="96" filterUnits="userSpaceOnUse" color-interpolation-filters="sRGB">
<feFlood flood-opacity="0" result="BackgroundImageFix"/>
<feColorMatrix in="SourceAlpha" type="matrix" values="0 0 0 0 0 0 0 0 0 0 0 0 0 0 0 0 0 0 127 0"/>
<feOffset dy="3"/>
<feGaussianBlur stdDeviation="4.5"/>
<feColorMatrix type="matrix" values="0 0 0 0 0 0 0 0 0 0 0 0 0 0 0 0 0 0 0.25 0"/>
<feBlend mode="normal" in2="BackgroundImageFix" result="effect1_dropShadow"/>
<feBlend mode="normal" in="SourceGraphic" in2="effect1_dropShadow" result="shape"/>
</filter>
</defs>
</svg>
